<svg id="Layer_1" data-name="Layer 1" xmlns="http://www.w3.org/2000/svg" xmlns:xlink="http://www.w3.org/1999/xlink" viewBox="0 0 1000 1000"><defs><style>.cls-1{fill:#0d54a4;}.cls-2{fill:url(#linear-gradient);}.cls-3{fill:url(#linear-gradient-2);}</style><linearGradient id="linear-gradient" x1="69.79" y1="429.09" x2="356.74" y2="429.09" gradientTransform="matrix(1, 0, 0, -1, 0, 1002)" gradientUnits="userSpaceOnUse"><stop offset="0" stop-color="#d9ad38"/><stop offset="0.17" stop-color="#daaa37"/><stop offset="0.33" stop-color="#dda036"/><stop offset="0.49" stop-color="#e28e35"/><stop offset="0.65" stop-color="#e67a33"/><stop offset="0.81" stop-color="#ed5e32"/><stop offset="0.96" stop-color="#ee3934"/><stop offset="1" stop-color="#ed3334"/></linearGradient><linearGradient id="linear-gradient-2" x1="416.74" y1="385.49" x2="932.14" y2="385.49" gradientTransform="matrix(1, 0, 0, -1, 0, 1002)" gradientUnits="userSpaceOnUse"><stop offset="0" stop-color="#dcae3a"/><stop offset="0.17" stop-color="#dcaa39"/><stop offset="0.33" stop-color="#e0a138"/><stop offset="0.49" stop-color="#e28f36"/><stop offset="0.65" stop-color="#e87a35"/><stop offset="0.8" stop-color="#ef5f34"/><stop offset="0.96" stop-color="#ee3a34"/><stop offset="1" stop-color="#ed3334"/></linearGradient></defs><path class="cls-1" d="M344.6,436.66S327.15,390,278.17,366.19c0,0-60.74-35.56-133.55,1.34,0,0-35.9,13.76-63.08,63.42,0,0-21.14,42.95-8.06,64.43,0,0,11.75,21.47,53,34.22,60.73,18.79,189.25,9.06,244.61-80.86,0,0-53.35,20.8-118.78,25.5,0,0,46.64,9.73,101.67-13.42,0,0-29.19,30.19-132.54,46.3,0,0-64.43,12.08-91.94-15.43,0,0-33.22-31.21,21.48-85.9,0,0,46-44.63,112.07-13.76,0,0,33.21,11.74,55,55C317.76,447.06,338.9,443,344.6,436.66Z"/><path class="cls-2" d="M355.68,493s3.69,23.82-2.69,47.64c0,0-113.75,90.27-234.21,42.62,0,0,95.63,66.1,217.43,0,0,0-35.23,63.75-117.44,69.46,0,0-38.58,1.67-72.81-16.11,0,0-73.48-32.21-76.17-111.06,13.76,8.38,78.19,42.27,158,28.18C262.39,547.39,309.71,533,355.68,493Z"/><path class="cls-1" d="M561,381h24.16V562.15H559.35V421.22l-55.7,70.13H499l-56.37-70.13V562.15H416.74V381h24.5l60.06,74.49Z"/><path class="cls-1" d="M688.2,381c24.49,0,45,8.72,61.07,25.83,16.44,17.12,24.49,38.93,24.49,64.76S765.37,519.2,748.93,536c-16.44,17.11-37.24,25.5-62.07,25.5-23.83,0-44-8.39-59.73-25.5s-23.82-38.25-23.82-64.09q0-39.25,24.15-65.43C643.57,389.68,663.7,381,688.2,381Zm1,24.16c-18.12,0-33.21,6.37-44.62,18.79-11.75,12.75-17.45,28.85-17.45,48.31,0,19.13,5.7,34.9,17.45,47.32,11.74,12.75,26.5,18.79,43.95,18.79,17.79,0,32.55-6.38,44.29-19.47,11.75-12.75,17.79-28.85,17.79-48,0-18.79-6-34.22-17.79-47A58.09,58.09,0,0,0,689.2,405.12Z"/><path class="cls-1" d="M791.88,562.15V381h45.3c18.45,0,32.88,4.69,43.62,13.75s16.1,21.48,16.1,36.91c0,10.41-2.68,19.8-8,27.52S876.1,472.56,866,476.25c5.71,3.69,11.41,9.06,17.12,15.44,5.37,6.71,13.42,18.11,23.49,34.22q9.55,15.6,15.09,23.15l9.74,13.09H900.6l-8.06-12.08c-.33-.34-.67-1-1.68-2.35l-5-7.05-8.05-13.08-8.73-14.09a151.67,151.67,0,0,0-14.76-17.79c-4.36-4.36-8.39-7.72-12.08-9.39q-5.54-3-18.12-3h-6.71v78.85Zm33.89-159h-7.72v57h9.73c13.09,0,22.15-1,27.18-3.35a25.77,25.77,0,0,0,11.41-10.07,30.29,30.29,0,0,0,4-15.43,27.87,27.87,0,0,0-4.7-15.44A23.17,23.17,0,0,0,853,406.12Q844.9,403.11,825.77,403.1Z"/><path class="cls-3" d="M446.27,618.18c-.33-5-.67-11.4-.67-15.09h0c-1.34,3.69-2.68,7.71-4.7,12.75l-7,18.45h-2l-6.71-18.12c-2-5.37-3.35-9.39-4.36-13.08h0c0,4-.33,10.06-.67,15.77l-1,15.77h-2.35l2.35-34.23h2.69l7.38,19.8c1.68,4.36,2.68,7.72,3.69,11.07h0c1-3,2-6.37,3.69-11.07l7.72-19.8h3l2.35,34.23h-2.35Zm25.5,10.41a30.29,30.29,0,0,0,.34,5.7h-2.35l-.34-3.35h0a9.25,9.25,0,0,1-7.71,4c-5,0-7-3.35-7-6.71,0-5.7,5-9.06,14.76-9.06v-.67c0-2.35-.33-7-6.37-7a12.54,12.54,0,0,0-6,1.68l-.67-1.68a15.1,15.1,0,0,1,7-2c7.05,0,8.39,5.37,8.39,9.73Zm-2.68-7.39c-5.37,0-12.42.68-12.42,6.38a4.67,4.67,0,0,0,4.7,5c4,0,6.38-2.35,7.05-4.69a2.6,2.6,0,0,0,.33-1.35V621.2Zm12.08.34h0c.67-.67,1.68-2,2.35-2.68l8.72-9.06h3l-9.73,10.06L496.6,634h-3L483.52,621.2l-2.35,2.69V634h-2.35V598.05h2.35Zm19.12.34c0,7.71,4.37,10.73,9.4,10.73a13.41,13.41,0,0,0,6.71-1.34l.67,2c-1,.68-3.35,1.68-7.72,1.68-7,0-11.4-5-11.4-12.08,0-8,4.69-13.08,11.07-13.08,8.05,0,9.39,7.38,9.39,11.07v1.34H500.29Zm15.44-2c0-3.35-1.34-8.39-7.38-8.39-5.37,0-7.72,4.7-8.06,8.39Zm46.3-3c0,12.08-7.38,18.12-15.43,18.12-8.39,0-15.1-6.71-15.1-17.45,0-11.07,6.71-18.12,15.43-18.12S562,606.11,562,616.84Zm-27.51.67c0,7.72,4.36,15.44,12.41,15.44s12.76-7.38,12.76-15.77c0-7.38-4-15.44-12.42-15.44C538.55,601.41,534.52,609.46,534.52,617.51Zm51.67,10.74a36,36,0,0,0,.34,6h-2.35v-4.36h0a9.52,9.52,0,0,1-8.39,5c-3,0-8.39-1.68-8.39-10.74V610.13h2.35v13.76c0,5.37,1.68,9.06,6.38,9.06a7.35,7.35,0,0,0,7-5,6.5,6.5,0,0,0,.34-2.69v-15.1h2.35v18.12Zm7.38-11.07a55.17,55.17,0,0,0-.33-7.38h2.35v5h0a7.55,7.55,0,0,1,7-5.37h1v2.35h-1c-3.35,0-5.7,3-6.37,6.71,0,.67-.34,1.68-.34,2.35v13.42h-2.35Zm23.16,2v2H604.65v-2Zm25.16-20.8v30.2a32.14,32.14,0,0,0,.34,5.7h-2.35v-4.7h0c-1.34,2.69-4,5-8.72,5-6,0-10.41-5-10.41-12.42,0-8.05,5-13.08,11.08-13.08,4.36,0,7,2,8,4.36h0V598.05h2Zm-2.35,21.14a5.8,5.8,0,0,0-.33-2.35,7.66,7.66,0,0,0-7.72-6c-5.37,0-8.72,4.7-8.72,10.74,0,5.36,2.68,10.4,8.39,10.4a8.1,8.1,0,0,0,7.71-6.38,4.19,4.19,0,0,0,.34-2v-4.36Zm9.73-2.35a55.17,55.17,0,0,0-.33-7.38h2.35v5h0a7.55,7.55,0,0,1,7-5.37h1v2.35h-1c-3.35,0-5.7,3-6.37,6.71,0,.67-.34,1.68-.34,2.35v13.42h-2.35Zm14.1,4.7c0,7.71,4.36,10.73,9.39,10.73a13.41,13.41,0,0,0,6.71-1.34l.67,2c-1,.68-3.35,1.68-7.71,1.68-7,0-11.41-5-11.41-12.08,0-8,4.7-13.08,11.07-13.08,8,0,9.4,7.38,9.4,11.07v1.34H663.37Zm15.43-2c0-3.35-1.34-8.39-7.38-8.39-5.37,0-7.72,4.7-8,8.39ZM702,628.59a30.29,30.29,0,0,0,.34,5.7h-2l-.34-3.35h0a9.27,9.27,0,0,1-7.72,4c-5,0-7-3.35-7-6.71,0-5.7,5-9.06,14.76-9.06v-.67c0-2.35-.33-7-6.37-7a12.48,12.48,0,0,0-6,1.68l-.67-1.68a15.07,15.07,0,0,1,7-2c7.05,0,8.39,5.37,8.39,9.73v9.4Zm-2.34-7.39c-5.37,0-12.42.68-12.42,6.38a4.67,4.67,0,0,0,4.7,5c4,0,6.37-2.35,7-4.69a2.54,2.54,0,0,0,.34-1.35V621.2Zm9.39-5.36a29.48,29.48,0,0,0-.33-5.71H711v4.36h0c1.68-2.68,4-4.69,8.06-4.69a7.54,7.54,0,0,1,7,5.36h0a14.43,14.43,0,0,1,2.35-3.35,8.49,8.49,0,0,1,5.71-2c2.35,0,8.05,1.34,8.05,10.4v14.43h-2.35v-14.1c0-5.37-2-8.72-6.37-8.72-3,0-5.37,2.35-6.38,4.7a5.62,5.62,0,0,0-.34,2.35v15.77h-2.34v-15.1c0-4.37-2-7.72-6-7.72-3.36,0-5.71,2.68-6.71,5.37a5.65,5.65,0,0,0-.34,2.35v15.1H709V615.84Zm39.93,15.1a12.68,12.68,0,0,0,5.37,1.67c3.69,0,5.7-2,5.7-4.69s-1.67-4-5-5.37c-4-1.68-6-3.69-6-6.71,0-3.36,2.68-6.71,7.38-6.71a8.57,8.57,0,0,1,5.37,1.67l-1,2a7.71,7.71,0,0,0-4.69-1.35,4.33,4.33,0,0,0-4.7,4.37c0,2.68,1.68,3.69,5,5,4,1.68,6.38,3.35,6.38,7,0,4-3.36,7-8.06,7a10.69,10.69,0,0,1-6-1.68Zm29.53-30.2c2-.67,5-.67,7.38-.67q6.54,0,9.06,3a9,9,0,0,1,2.35,6c0,4.69-2.69,7.38-6.71,9h0c2.68,1,4.36,3.36,5.37,7.39,1,5.37,1.67,7.71,2.68,9.06h-2.35c-.67-1-1.34-4-2-8.39-1-5-3.36-7-7.72-7.38h-5.7v15.77h-2.35Zm2.35,15.77h5.37c5.36,0,8.72-3,8.72-7.38,0-5.37-3.69-7.39-9.06-7.39-2.35,0-4,.34-5,.34v14.43Zm22.81,5.37c0,7.71,4.37,10.73,9.4,10.73a13.41,13.41,0,0,0,6.71-1.34l.67,2c-1,.68-3.35,1.68-7.72,1.68-7,0-11.4-5-11.4-12.08,0-8,4.69-13.08,11.07-13.08,8,0,9.39,7.38,9.39,11.07v1.34H803.62Zm15.77-2c0-3.35-1.34-8.39-7.38-8.39-5.37,0-7.72,4.7-8,8.39Zm22.82,8.73a30.29,30.29,0,0,0,.34,5.7H840.2l-.34-3.35h0a9.25,9.25,0,0,1-7.72,4c-5,0-7-3.35-7-6.71,0-5.7,5-9.06,14.76-9.06v-.67c0-2.35-.33-7-6.37-7a12.51,12.51,0,0,0-6,1.68l-.67-1.68a15.1,15.1,0,0,1,7-2c7,0,8.39,5.37,8.39,9.73Zm-2.35-7.39c-5.37,0-12.41.68-12.41,6.38a4.67,4.67,0,0,0,4.69,5c4,0,6.38-2.35,7.05-4.69a2.54,2.54,0,0,0,.34-1.35V621.2Zm9.73-22.81h2.35v35.9h-2.35Zm13.09,4.7a1.93,1.93,0,0,1-2,2,2,2,0,1,1,0-4C861.67,600.74,862.68,601.74,862.68,603.09Zm-3.36,31.2V610.13h2.35v24.16ZM866,633l13.09-17.11c1-1,1.68-2.35,2.69-3.36H867v-2h17.78v1.67l-13.08,17.12c-1,1-1.68,2.35-2.69,3.35h15.77v2H866Zm22.82-11.07c0,7.71,4.36,10.73,9.4,10.73a13.41,13.41,0,0,0,6.71-1.34l.67,2c-1,.68-3.36,1.68-7.72,1.68-7,0-11.41-5-11.41-12.08,0-8,4.7-13.08,11.08-13.08,8,0,9.39,7.38,9.39,11.07v1.34H888.85Zm15.44-2c0-3.35-1.35-8.39-7.39-8.39-5.36,0-7.71,4.7-8,8.39Zm27.51-21.47v30.2a32.14,32.14,0,0,0,.34,5.7h-2l-.33-4.7h0c-1.34,2.69-4,5-8.73,5-6,0-10.4-5-10.4-12.42,0-8.05,5-13.09,11.07-13.09,4.37,0,7,2,8.06,4.37h0V598.05h2Zm-2.35,21.14a5.8,5.8,0,0,0-.33-2.35,7.66,7.66,0,0,0-7.72-6c-5.37,0-8.73,4.7-8.73,10.74,0,5.36,2.69,10.4,8.39,10.4a8.11,8.11,0,0,0,7.72-6.38,4.19,4.19,0,0,0,.34-2v-4.36Z"/></svg>